<svg xmlns="http://www.w3.org/2000/svg" viewBox="0 0 800 500" fill="none">
  <defs>
    <linearGradient id="bodyGrad4" x1="0%" y1="0%" x2="100%" y2="100%">
      <stop offset="0%" style="stop-color:#374151;stop-opacity:1" />
      <stop offset="100%" style="stop-color:#1f2937;stop-opacity:1" />
    </linearGradient>
    <linearGradient id="windowGrad4" x1="0%" y1="0%" x2="0%" y2="100%">
      <stop offset="0%" style="stop-color:#6b7280;stop-opacity:1" />
      <stop offset="100%" style="stop-color:#374151;stop-opacity:1" />
    </linearGradient>
  </defs>
  
  <!-- Shadow -->
  <ellipse cx="410" cy="368" rx="285" ry="14" fill="#000" opacity="0.18"/>
  
  <!-- Main body -->
  <path d="M100 280 L125 185 L180 162 L340 150 L480 145 L620 155 L695 185 L725 235 L730 280 L718 318 L100 318 Z" fill="url(#bodyGrad4)"/>
  
  <!-- Windows - Audi style continuous line -->
  <path d="M180 180 L340 165 L345 255 L175 262 Z" fill="url(#windowGrad4)" opacity="0.93"/>
  <path d="M360 163 L520 155 L555 178 L560 255 L360 255 Z" fill="url(#windowGrad4)" opacity="0.93"/>
  <path d="M575 178 L620 185 L660 208 L665 255 L575 255 Z" fill="url(#windowGrad4)" opacity="0.93"/>
  
  <!-- Audi Singleframe grille -->
  <path d="M105 225 L120 200 L155 195 L160 280 L105 280 Z" fill="#111827"/>
  <line x1="115" y1="210" x2="115" y2="275" stroke="#4b5563" stroke-width="1"/>
  <line x1="125" y1="205" x2="125" y2="278" stroke="#4b5563" stroke-width="1"/>
  <line x1="135" y1="200" x2="135" y2="278" stroke="#4b5563" stroke-width="1"/>
  <line x1="145" y1="197" x2="145" y2="278" stroke="#4b5563" stroke-width="1"/>
  <line x1="155" y1="195" x2="155" y2="278" stroke="#4b5563" stroke-width="1"/>
  
  <!-- Headlights - Matrix LED style -->
  <path d="M162 210 L195 205 L200 265 L162 270 Z" fill="#fefce8" opacity="0.88"/>
  <line x1="168" y1="215" x2="168" y2="260" stroke="#fbbf24" stroke-width="2"/>
  <line x1="180" y1="212" x2="180" y2="262" stroke="#fbbf24" stroke-width="2"/>
  <line x1="192" y1="210" x2="192" y2="262" stroke="#fbbf24" stroke-width="2"/>
  
  <!-- Tail lights -->
  <path d="M710 235 L728 240 L728 278 L705 275 Z" fill="#fca5a5" opacity="0.9"/>
  <line x1="715" y1="242" x2="715" y2="272" stroke="#ef4444" stroke-width="3"/>
  
  <!-- Wheels -->
  <circle cx="230" cy="318" r="62" fill="#1f2937"/>
  <circle cx="230" cy="318" r="50" fill="#111827"/>
  <circle cx="230" cy="318" r="35" fill="#374151"/>
  <circle cx="230" cy="318" r="14" fill="#1f2937"/>
  <!-- Rotor design -->
  <path d="M230 265 L240 290 L230 305 L220 290 Z" fill="#6b7280"/>
  <path d="M230 265 L240 290 L230 305 L220 290 Z" fill="#6b7280" transform="rotate(60,230,318)"/>
  <path d="M230 265 L240 290 L230 305 L220 290 Z" fill="#6b7280" transform="rotate(120,230,318)"/>
  <path d="M230 265 L240 290 L230 305 L220 290 Z" fill="#6b7280" transform="rotate(180,230,318)"/>
  <path d="M230 265 L240 290 L230 305 L220 290 Z" fill="#6b7280" transform="rotate(240,230,318)"/>
  <path d="M230 265 L240 290 L230 305 L220 290 Z" fill="#6b7280" transform="rotate(300,230,318)"/>
  
  <circle cx="600" cy="318" r="62" fill="#1f2937"/>
  <circle cx="600" cy="318" r="50" fill="#111827"/>
  <circle cx="600" cy="318" r="35" fill="#374151"/>
  <circle cx="600" cy="318" r="14" fill="#1f2937"/>
  <path d="M600 265 L610 290 L600 305 L590 290 Z" fill="#6b7280"/>
  <path d="M600 265 L610 290 L600 305 L590 290 Z" fill="#6b7280" transform="rotate(60,600,318)"/>
  <path d="M600 265 L610 290 L600 305 L590 290 Z" fill="#6b7280" transform="rotate(120,600,318)"/>
  <path d="M600 265 L610 290 L600 305 L590 290 Z" fill="#6b7280" transform="rotate(180,600,318)"/>
  <path d="M600 265 L610 290 L600 305 L590 290 Z" fill="#6b7280" transform="rotate(240,600,318)"/>
  <path d="M600 265 L610 290 L600 305 L590 290 Z" fill="#6b7280" transform="rotate(300,600,318)"/>
  
  <!-- Chrome trim -->
  <line x1="100" y1="272" x2="718" y2="272" stroke="#9ca3af" stroke-width="2.5"/>
  <path d="M168 162 L170 178 L665 168 L668 185" fill="none" stroke="#9ca3af" stroke-width="1.5"/>
</svg>

