<svg xmlns="http://www.w3.org/2000/svg" viewBox="0 0 800 500" fill="none">
  <defs>
    <linearGradient id="bodyGrad2" x1="0%" y1="0%" x2="100%" y2="100%">
      <stop offset="0%" style="stop-color:#f5f5f5;stop-opacity:1" />
      <stop offset="100%" style="stop-color:#d4d4d4;stop-opacity:1" />
    </linearGradient>
    <linearGradient id="windowGrad2" x1="0%" y1="0%" x2="0%" y2="100%">
      <stop offset="0%" style="stop-color:#374151;stop-opacity:1" />
      <stop offset="100%" style="stop-color:#1f2937;stop-opacity:1" />
    </linearGradient>
  </defs>
  
  <!-- Shadow -->
  <ellipse cx="410" cy="365" rx="280" ry="15" fill="#000" opacity="0.15"/>
  
  <!-- Main body -->
  <path d="M110 280 L145 195 L195 175 L340 165 L460 160 L610 168 L680 195 L705 225 L715 280 L705 315 L110 315 Z" fill="url(#bodyGrad2)"/>
  
  <!-- Windows -->
  <path d="M195 190 L340 178 L345 255 L190 260 Z" fill="url(#windowGrad2)" opacity="0.95"/>
  <path d="M355 177 L500 172 L525 190 L530 255 L355 255 Z" fill="url(#windowGrad2)" opacity="0.95"/>
  <path d="M545 190 L610 198 L630 215 L635 255 L545 255 Z" fill="url(#windowGrad2)" opacity="0.95"/>
  
  <!-- Roof line -->
  <path d="M195 175 L340 165 L460 160 L610 168 L620 195 L550 192 L350 185 L195 188 Z" fill="#e5e5e5"/>
  
  <!-- Headlights -->
  <path d="M120 235 L150 230 L155 270 L120 275 Z" fill="#fef3c7" opacity="0.9"/>
  <rect x="125" y="238" width="5" height="30" fill="#fbbf24" opacity="0.8"/>
  <path d="M695 235 L705 238 L705 275 L690 272 Z" fill="#fca5a5" opacity="0.9"/>
  
  <!-- Mercedes star hint -->
  <circle cx="135" cy="252" r="12" fill="none" stroke="#a1a1aa" stroke-width="1"/>
  
  <!-- Wheels -->
  <circle cx="220" cy="315" r="58" fill="#374151"/>
  <circle cx="220" cy="315" r="45" fill="#1f2937"/>
  <circle cx="220" cy="315" r="30" fill="#4b5563"/>
  <circle cx="220" cy="315" r="10" fill="#374151"/>
  <!-- 5-spoke pattern -->
  <line x1="220" y1="275" x2="220" y2="295" stroke="#6b7280" stroke-width="6"/>
  <line x1="185" y1="305" x2="200" y2="315" stroke="#6b7280" stroke-width="6"/>
  <line x1="185" y1="330" x2="200" y2="320" stroke="#6b7280" stroke-width="6"/>
  <line x1="240" y1="305" x2="255" y2="315" stroke="#6b7280" stroke-width="6"/>
  <line x1="240" y1="330" x2="255" y2="320" stroke="#6b7280" stroke-width="6"/>
  
  <circle cx="600" cy="315" r="58" fill="#374151"/>
  <circle cx="600" cy="315" r="45" fill="#1f2937"/>
  <circle cx="600" cy="315" r="30" fill="#4b5563"/>
  <circle cx="600" cy="315" r="10" fill="#374151"/>
  <line x1="600" y1="275" x2="600" y2="295" stroke="#6b7280" stroke-width="6"/>
  <line x1="565" y1="305" x2="580" y2="315" stroke="#6b7280" stroke-width="6"/>
  <line x1="565" y1="330" x2="580" y2="320" stroke="#6b7280" stroke-width="6"/>
  <line x1="620" y1="305" x2="635" y2="315" stroke="#6b7280" stroke-width="6"/>
  <line x1="620" y1="330" x2="635" y2="320" stroke="#6b7280" stroke-width="6"/>
  
  <!-- Chrome trim -->
  <line x1="110" y1="270" x2="705" y2="270" stroke="#a1a1aa" stroke-width="3"/>
  <line x1="185" y1="175" x2="630" y2="168" stroke="#a1a1aa" stroke-width="2"/>
</svg>

