<svg xmlns="http://www.w3.org/2000/svg" viewBox="0 0 1200 630" fill="none">
  <defs>
    <linearGradient id="bgGrad2" x1="0%" y1="0%" x2="100%" y2="100%">
      <stop offset="0%" style="stop-color:#042f2e;stop-opacity:1" />
      <stop offset="50%" style="stop-color:#134e4a;stop-opacity:1" />
      <stop offset="100%" style="stop-color:#042f2e;stop-opacity:1" />
    </linearGradient>
    <linearGradient id="accent2" x1="0%" y1="0%" x2="100%" y2="0%">
      <stop offset="0%" style="stop-color:#10b981;stop-opacity:1" />
      <stop offset="100%" style="stop-color:#06b6d4;stop-opacity:1" />
    </linearGradient>
  </defs>
  
  <!-- Background -->
  <rect width="1200" height="630" fill="url(#bgGrad2)"/>
  
  <!-- Decorative elements -->
  <circle cx="1050" cy="150" r="250" fill="#10b981" opacity="0.05"/>
  <circle cx="150" cy="480" r="200" fill="#06b6d4" opacity="0.05"/>
  
  <!-- Electric wave pattern -->
  <g opacity="0.08">
    <path d="M0 400 Q 200 350, 400 400 T 800 400 T 1200 400" stroke="#10b981" stroke-width="2" fill="none"/>
    <path d="M0 420 Q 200 370, 400 420 T 800 420 T 1200 420" stroke="#06b6d4" stroke-width="2" fill="none"/>
    <path d="M0 440 Q 200 390, 400 440 T 800 440 T 1200 440" stroke="#10b981" stroke-width="2" fill="none"/>
  </g>
  
  <!-- Lightning bolt / charging icon -->
  <g transform="translate(100, 180)">
    <circle cx="100" cy="100" r="90" fill="url(#accent2)" opacity="0.15"/>
    <circle cx="100" cy="100" r="65" fill="url(#accent2)" opacity="0.3"/>
    <path d="M115 50 L80 110 L100 110 L85 150 L120 90 L100 90 Z" fill="#fff"/>
  </g>
  
  <!-- Leaf icon -->
  <g transform="translate(130, 380)">
    <path d="M50 100 Q 20 60, 60 30 Q 100 0, 120 50 Q 140 100, 80 120 Q 60 110, 50 100" fill="#10b981" opacity="0.4"/>
    <path d="M60 90 Q 70 70, 85 60" stroke="#fff" stroke-width="2" fill="none" opacity="0.6"/>
  </g>
  
  <!-- Battery icon -->
  <g transform="translate(80, 480)">
    <rect x="10" y="25" width="80" height="40" rx="5" fill="#0d9488" stroke="#14b8a6" stroke-width="2"/>
    <rect x="90" y="35" width="8" height="20" rx="2" fill="#14b8a6"/>
    <rect x="18" y="33" width="20" height="24" rx="2" fill="#10b981"/>
    <rect x="42" y="33" width="20" height="24" rx="2" fill="#10b981"/>
    <rect x="66" y="33" width="15" height="24" rx="2" fill="#10b981" opacity="0.5"/>
  </g>
  
  <!-- Text area -->
  <text x="350" y="250" font-family="system-ui, sans-serif" font-size="58" font-weight="700" fill="#f0fdfa">
    Elektromobilit채t
  </text>
  <text x="350" y="320" font-family="system-ui, sans-serif" font-size="58" font-weight="700" fill="url(#accent2)">
    Die Zukunft des Fahrens
  </text>
  
  <text x="350" y="400" font-family="system-ui, sans-serif" font-size="24" fill="#5eead4">
    Alles was Sie 체ber E-Autos, Hybrid-Fahrzeuge
  </text>
  <text x="350" y="435" font-family="system-ui, sans-serif" font-size="24" fill="#5eead4">
    und nachhaltige Mobilit채t wissen m체ssen
  </text>
  
  <!-- ST Motors Badge -->
  <g transform="translate(1000, 520)">
    <rect x="0" y="0" width="150" height="60" rx="8" fill="#134e4a" stroke="#2dd4bf" stroke-width="1" opacity="0.5"/>
    <text x="75" y="28" text-anchor="middle" font-family="system-ui, sans-serif" font-size="14" font-weight="600" fill="#5eead4">
      ST MOTORS
    </text>
    <text x="75" y="48" text-anchor="middle" font-family="system-ui, sans-serif" font-size="11" fill="#2dd4bf">
      Premium Automobile
    </text>
  </g>
  
  <!-- Accent line -->
  <rect x="350" y="190" width="80" height="4" rx="2" fill="url(#accent2)"/>
</svg>

